<svg width="30" height="30" viewBox="0 0 30 30" fill="none" xmlns="http://www.w3.org/2000/svg">
<path d="M19.6805 25.8323C19.8936 25.5542 20 25.2245 20 24.8436L12.5 15L20 5.15636C20 4.77525 19.8936 4.44579 19.6805 4.16743C19.4672 3.88907 19.215 3.75 18.9235 3.75C18.632 3.75 18.3798 3.88907 18.1667 4.16743L10.6321 14.0111C10.419 14.2897 10.3123 14.6192 10.3123 15C10.3123 15.3808 10.419 15.7106 10.6321 15.9887L18.1668 25.8323C18.3798 26.1104 18.632 26.25 18.9235 26.25C19.215 26.25 19.4672 26.1104 19.6805 25.8323Z" fill="white"/>
</svg>
