<svg width="40" height="40" viewBox="0 0 40 40" fill="none" xmlns="http://www.w3.org/2000/svg">
<path d="M20 40C31.0457 40 40 31.0457 40 20C40 8.9543 31.0457 0 20 0C8.9543 0 0 8.9543 0 20C0 31.0457 8.9543 40 20 40Z" fill="url(#paint0_linear)"/>
<path d="M27.312 23.4853C26.672 23.051 25.8312 23.0532 25.1935 23.4908L24.2754 24.121C23.2527 24.8228 21.8927 24.7847 20.9098 24.0282C19.9834 23.3152 19.0991 22.5507 18.2595 21.7405C17.4492 20.9008 16.6848 20.0167 15.9717 19.0902C15.2152 18.1073 15.1771 16.7473 15.879 15.7246L16.5091 14.8064C16.9467 14.1688 16.949 13.328 16.5147 12.688L13.8866 8.81495C13.1605 7.74511 11.7474 7.38667 10.6011 7.98472L10.6004 7.98503C8.28484 9.19315 7.31336 11.9867 8.37429 14.3733C9.9014 17.8089 11.9519 20.9513 14.4265 23.7032L16.2967 25.5735C19.0487 28.048 22.1912 30.0985 25.6266 31.6257C28.0133 32.6866 30.8068 31.7151 32.0149 29.3996L32.0152 29.3989C32.6133 28.2526 32.2549 26.8394 31.185 26.1134L27.312 23.4853Z" fill="white"/>
<defs>
<linearGradient id="paint0_linear" x1="20" y1="0" x2="20" y2="40" gradientUnits="userSpaceOnUse">
<stop stop-color="#72A6D6"/>
<stop offset="1" stop-color="#00FFE0"/>
</linearGradient>
</defs>
</svg>
