<svg width="75" height="75" viewBox="0 0 75 75" fill="none" xmlns="http://www.w3.org/2000/svg">
<path d="M37.4999 10C52.6886 10 65 22.3131 65 37.5001C65 52.6888 52.6886 65 37.4999 65C22.3112 65 10 52.6886 10 37.5001C10 22.3131 22.3114 10 37.4999 10Z" fill="url(#paint0_linear)"/>
<path d="M54.6927 28.5269C53.4913 29.0459 52.1987 29.3948 50.8427 29.553C52.2281 28.7468 53.2903 27.4732 53.7904 25.9522C52.4945 26.6999 51.061 27.2413 49.533 27.5317C48.311 26.2685 46.5699 25.4795 44.6415 25.4795C40.9428 25.4795 37.9419 28.3894 37.9419 31.9815C37.9419 32.492 38.0004 32.9887 38.1154 33.4648C32.5466 33.1933 27.607 30.6031 24.3036 26.6689C23.7261 27.6297 23.3961 28.7451 23.3961 29.9379C23.3961 32.1929 24.5785 34.1866 26.3764 35.3503C25.2765 35.316 24.2451 35.0254 23.3394 34.5357V34.6182C23.3394 37.7703 25.6493 40.3984 28.7156 40.9965C28.1535 41.1443 27.5622 41.2251 26.9503 41.2251C26.5189 41.2251 26.0996 41.1857 25.6905 41.1083C26.5429 43.6933 29.018 45.5735 31.9519 45.6252C29.6575 47.3714 26.7681 48.4096 23.6281 48.4096C23.0866 48.4096 22.5538 48.3786 22.0278 48.3186C24.9961 50.1644 28.5162 51.2421 32.3025 51.2421C44.6294 51.2421 51.3704 41.3284 51.3704 32.7346L51.3515 31.8923C52.6576 30.9778 53.7938 29.8331 54.6927 28.5269Z" fill="white"/>
<circle cx="37.5" cy="37.5" r="36.5" stroke="url(#paint1_linear)" stroke-width="2"/>
<defs>
<linearGradient id="paint0_linear" x1="37.5" y1="10" x2="37.5" y2="65" gradientUnits="userSpaceOnUse">
<stop stop-color="#72A6D6"/>
<stop offset="1" stop-color="#00FFE0"/>
</linearGradient>
<linearGradient id="paint1_linear" x1="37.5" y1="0" x2="37.5" y2="75" gradientUnits="userSpaceOnUse">
<stop stop-color="#72A6D6"/>
<stop offset="1" stop-color="#00FFE0"/>
</linearGradient>
</defs>
</svg>
