<svg width="75" height="75" viewBox="0 0 75 75" fill="none" xmlns="http://www.w3.org/2000/svg">
<path d="M37.5 65C52.6878 65 65 52.6878 65 37.5C65 22.3122 52.6878 10 37.5 10C22.3122 10 10 22.3122 10 37.5C10 52.6878 22.3122 65 37.5 65Z" fill="url(#paint0_linear)"/>
<path fill-rule="evenodd" clip-rule="evenodd" d="M36.4613 49.5611H38.6197C38.6197 49.5611 39.2717 49.4895 39.6045 49.1307C39.9109 48.8013 39.9011 48.1826 39.9011 48.1826C39.9011 48.1826 39.8589 45.2864 41.2031 44.86C42.5281 44.4398 44.2297 47.6591 46.0332 48.8969C47.3969 49.8337 48.4333 49.6283 48.4333 49.6283L53.2555 49.5611C53.2555 49.5611 55.7781 49.4057 54.582 47.4223C54.484 47.26 53.8854 45.9551 50.9966 43.2736C47.9729 40.4672 48.3779 40.9211 52.0201 36.0665C54.2384 33.11 55.1252 31.3051 54.8482 30.532C54.584 29.7957 52.9525 29.9903 52.9525 29.9903L47.5229 30.0241C47.5229 30.0241 47.1205 29.9692 46.8219 30.1477C46.5302 30.3227 46.3425 30.7305 46.3425 30.7305C46.3425 30.7305 45.4831 33.0184 44.337 34.964C41.9193 39.0696 40.9526 39.2862 40.5575 39.0313C39.6383 38.4372 39.8678 36.6445 39.8678 35.3709C39.8678 31.3923 40.4712 29.7334 38.6927 29.304C38.1025 29.1614 37.6682 29.0672 36.1588 29.052C34.2215 29.0319 32.5817 29.0579 31.6532 29.5128C31.0356 29.8153 30.5591 30.4894 30.8493 30.5281C31.2081 30.5761 32.0209 30.7472 32.4518 31.334C33.0082 32.0909 32.9886 33.7909 32.9886 33.7909C32.9886 33.7909 33.3082 38.4744 32.242 39.0563C31.5101 39.4554 30.5061 38.6406 28.3507 34.916C27.2462 33.0081 26.4124 30.8992 26.4124 30.8992C26.4124 30.8992 26.2516 30.505 25.9648 30.2942C25.6168 30.0388 25.1305 29.9575 25.1305 29.9575L19.971 29.9913C19.971 29.9913 19.1964 30.0129 18.9121 30.3496C18.6592 30.6492 18.892 31.2688 18.892 31.2688C18.892 31.2688 22.9314 40.7191 27.5051 45.4815C31.6988 49.8479 36.4613 49.5611 36.4613 49.5611Z" fill="white"/>
<circle cx="37.5" cy="37.5" r="36.5" stroke="url(#paint1_linear)" stroke-width="2"/>
<defs>
<linearGradient id="paint0_linear" x1="37.5" y1="10" x2="37.5" y2="65" gradientUnits="userSpaceOnUse">
<stop stop-color="#72A6D6"/>
<stop offset="1" stop-color="#00FFE0"/>
</linearGradient>
<linearGradient id="paint1_linear" x1="37.5" y1="0" x2="37.5" y2="75" gradientUnits="userSpaceOnUse">
<stop stop-color="#72A6D6"/>
<stop offset="1" stop-color="#00FFE0"/>
</linearGradient>
</defs>
</svg>
