<svg width="535" height="1139" viewBox="0 0 535 1139" fill="none" xmlns="http://www.w3.org/2000/svg">
<circle cx="22.5" cy="325.5" r="22.5" fill="#00FFE0" fill-opacity="0.18"/>
<circle cx="512.5" cy="813.5" r="22.5" transform="rotate(180 512.5 813.5)" fill="#00FFE0" fill-opacity="0.18"/>
<circle cx="22.5" cy="269.5" r="17.5" fill="#00FFE0" fill-opacity="0.18"/>
<circle cx="512.5" cy="869.5" r="17.5" transform="rotate(180 512.5 869.5)" fill="#00FFE0" fill-opacity="0.18"/>
<circle cx="22.5" cy="223.5" r="12.5" fill="#00FFE0" fill-opacity="0.18"/>
<circle cx="512.5" cy="915.5" r="12.5" transform="rotate(180 512.5 915.5)" fill="#00FFE0" fill-opacity="0.18"/>
<circle cx="22.5" cy="182.5" r="12.5" fill="#00FFE0" fill-opacity="0.18"/>
<circle cx="512.5" cy="956.5" r="12.5" transform="rotate(180 512.5 956.5)" fill="#00FFE0" fill-opacity="0.18"/>
<circle cx="22.5" cy="141.5" r="12.5" fill="#00FFE0" fill-opacity="0.18"/>
<circle cx="512.5" cy="997.5" r="12.5" transform="rotate(180 512.5 997.5)" fill="#00FFE0" fill-opacity="0.18"/>
<circle cx="22.5" cy="100.5" r="12.5" fill="#00FFE0" fill-opacity="0.18"/>
<circle cx="512.5" cy="1038.5" r="12.5" transform="rotate(180 512.5 1038.5)" fill="#00FFE0" fill-opacity="0.18"/>
<circle cx="22.5" cy="64.5" r="7.5" fill="#00FFE0" fill-opacity="0.18"/>
<circle cx="512.5" cy="1074.5" r="7.5" transform="rotate(180 512.5 1074.5)" fill="#00FFE0" fill-opacity="0.18"/>
<circle cx="22.5" cy="33.5" r="7.5" fill="#00FFE0" fill-opacity="0.18"/>
<circle cx="512.5" cy="1105.5" r="7.5" transform="rotate(180 512.5 1105.5)" fill="#00FFE0" fill-opacity="0.18"/>
<circle cx="23" cy="5" r="5" fill="#00FFE0" fill-opacity="0.18"/>
<circle cx="512" cy="1134" r="5" transform="rotate(180 512 1134)" fill="#00FFE0" fill-opacity="0.18"/>
<circle cx="142.5" cy="223.5" r="12.5" fill="#00FFE0" fill-opacity="0.18"/>
<circle cx="392.5" cy="915.5" r="12.5" transform="rotate(180 392.5 915.5)" fill="#00FFE0" fill-opacity="0.18"/>
<circle cx="82.5" cy="223.5" r="12.5" fill="#00FFE0" fill-opacity="0.18"/>
<circle cx="452.5" cy="915.5" r="12.5" transform="rotate(180 452.5 915.5)" fill="#00FFE0" fill-opacity="0.18"/>
<circle cx="82.5" cy="182.5" r="12.5" fill="#00FFE0" fill-opacity="0.18"/>
<circle cx="452.5" cy="956.5" r="12.5" transform="rotate(180 452.5 956.5)" fill="#00FFE0" fill-opacity="0.18"/>
<circle cx="82.5" cy="141.5" r="12.5" fill="#00FFE0" fill-opacity="0.18"/>
<circle cx="452.5" cy="997.5" r="12.5" transform="rotate(180 452.5 997.5)" fill="#00FFE0" fill-opacity="0.18"/>
<circle cx="202.5" cy="223.5" r="12.5" fill="#00FFE0" fill-opacity="0.18"/>
<circle cx="332.5" cy="915.5" r="12.5" transform="rotate(180 332.5 915.5)" fill="#00FFE0" fill-opacity="0.18"/>
<circle cx="262.5" cy="269.5" r="17.5" fill="#00FFE0" fill-opacity="0.18"/>
<circle cx="272.5" cy="869.5" r="17.5" transform="rotate(180 272.5 869.5)" fill="#00FFE0" fill-opacity="0.18"/>
<circle cx="142.5" cy="269.5" r="17.5" fill="#00FFE0" fill-opacity="0.18"/>
<circle cx="392.5" cy="869.5" r="17.5" transform="rotate(180 392.5 869.5)" fill="#00FFE0" fill-opacity="0.18"/>
<circle cx="82.5" cy="269.5" r="17.5" fill="#00FFE0" fill-opacity="0.18"/>
<circle cx="452.5" cy="869.5" r="17.5" transform="rotate(180 452.5 869.5)" fill="#00FFE0" fill-opacity="0.18"/>
<circle cx="322.5" cy="269.5" r="17.5" fill="#00FFE0" fill-opacity="0.18"/>
<circle cx="212.5" cy="869.5" r="17.5" transform="rotate(180 212.5 869.5)" fill="#00FFE0" fill-opacity="0.18"/>
<circle cx="202.5" cy="269.5" r="17.5" fill="#00FFE0" fill-opacity="0.18"/>
<circle cx="332.5" cy="869.5" r="17.5" transform="rotate(180 332.5 869.5)" fill="#00FFE0" fill-opacity="0.18"/>
<circle cx="22.5" cy="569.5" r="22.5" fill="#00FFE0" fill-opacity="0.18"/>
<circle cx="23.5" cy="447.5" r="22.5" fill="#00FFE0" fill-opacity="0.18"/>
<circle cx="23.5" cy="691.5" r="22.5" fill="#00FFE0" fill-opacity="0.18"/>
<circle cx="22.5" cy="386.5" r="22.5" fill="#00FFE0" fill-opacity="0.18"/>
<circle cx="22.5" cy="630.5" r="22.5" fill="#00FFE0" fill-opacity="0.18"/>
<circle cx="23.5" cy="508.5" r="22.5" fill="#00FFE0" fill-opacity="0.18"/>
<circle cx="23.5" cy="752.5" r="22.5" fill="#00FFE0" fill-opacity="0.18"/>
<circle cx="510.5" cy="569.5" r="22.5" fill="#00FFE0" fill-opacity="0.18"/>
<circle cx="511.5" cy="447.5" r="22.5" fill="#00FFE0" fill-opacity="0.18"/>
<circle cx="511.5" cy="691.5" r="22.5" fill="#00FFE0" fill-opacity="0.18"/>
<circle cx="510.5" cy="630.5" r="22.5" fill="#00FFE0" fill-opacity="0.18"/>
<circle cx="511.5" cy="508.5" r="22.5" fill="#00FFE0" fill-opacity="0.18"/>
<circle cx="511.5" cy="752.5" r="22.5" fill="#00FFE0" fill-opacity="0.18"/>
<circle cx="266.5" cy="325.5" r="22.5" fill="#00FFE0" fill-opacity="0.18"/>
<circle cx="268.5" cy="813.5" r="22.5" transform="rotate(180 268.5 813.5)" fill="#00FFE0" fill-opacity="0.18"/>
<circle cx="266.5" cy="569.5" r="22.5" fill="#00FFE0" fill-opacity="0.18"/>
<circle cx="267.5" cy="447.5" r="22.5" fill="#00FFE0" fill-opacity="0.18"/>
<circle cx="267.5" cy="691.5" r="22.5" fill="#00FFE0" fill-opacity="0.18"/>
<circle cx="266.5" cy="386.5" r="22.5" fill="#00FFE0" fill-opacity="0.18"/>
<circle cx="266.5" cy="630.5" r="22.5" fill="#00FFE0" fill-opacity="0.18"/>
<circle cx="267.5" cy="508.5" r="22.5" fill="#00FFE0" fill-opacity="0.18"/>
<circle cx="267.5" cy="752.5" r="22.5" fill="#00FFE0" fill-opacity="0.18"/>
<circle cx="144.5" cy="325.5" r="22.5" fill="#00FFE0" fill-opacity="0.18"/>
<circle cx="390.5" cy="813.5" r="22.5" transform="rotate(180 390.5 813.5)" fill="#00FFE0" fill-opacity="0.18"/>
<circle cx="144.5" cy="569.5" r="22.5" fill="#00FFE0" fill-opacity="0.18"/>
<circle cx="145.5" cy="447.5" r="22.5" fill="#00FFE0" fill-opacity="0.18"/>
<circle cx="145.5" cy="691.5" r="22.5" fill="#00FFE0" fill-opacity="0.18"/>
<circle cx="144.5" cy="386.5" r="22.5" fill="#00FFE0" fill-opacity="0.18"/>
<circle cx="144.5" cy="630.5" r="22.5" fill="#00FFE0" fill-opacity="0.18"/>
<circle cx="145.5" cy="508.5" r="22.5" fill="#00FFE0" fill-opacity="0.18"/>
<circle cx="145.5" cy="752.5" r="22.5" fill="#00FFE0" fill-opacity="0.18"/>
<circle cx="388.5" cy="569.5" r="22.5" fill="#00FFE0" fill-opacity="0.18"/>
<circle cx="389.5" cy="447.5" r="22.5" fill="#00FFE0" fill-opacity="0.18"/>
<circle cx="389.5" cy="691.5" r="22.5" fill="#00FFE0" fill-opacity="0.18"/>
<circle cx="388.5" cy="630.5" r="22.5" fill="#00FFE0" fill-opacity="0.18"/>
<circle cx="389.5" cy="508.5" r="22.5" fill="#00FFE0" fill-opacity="0.18"/>
<circle cx="389.5" cy="752.5" r="22.5" fill="#00FFE0" fill-opacity="0.18"/>
<circle cx="83.5" cy="325.5" r="22.5" fill="#00FFE0" fill-opacity="0.18"/>
<circle cx="451.5" cy="813.5" r="22.5" transform="rotate(180 451.5 813.5)" fill="#00FFE0" fill-opacity="0.18"/>
<circle cx="83.5" cy="569.5" r="22.5" fill="#00FFE0" fill-opacity="0.18"/>
<circle cx="84.5" cy="447.5" r="22.5" fill="#00FFE0" fill-opacity="0.18"/>
<circle cx="84.5" cy="691.5" r="22.5" fill="#00FFE0" fill-opacity="0.18"/>
<circle cx="83.5" cy="386.5" r="22.5" fill="#00FFE0" fill-opacity="0.18"/>
<circle cx="83.5" cy="630.5" r="22.5" fill="#00FFE0" fill-opacity="0.18"/>
<circle cx="84.5" cy="508.5" r="22.5" fill="#00FFE0" fill-opacity="0.18"/>
<circle cx="84.5" cy="752.5" r="22.5" fill="#00FFE0" fill-opacity="0.18"/>
<circle cx="327.5" cy="325.5" r="22.5" fill="#00FFE0" fill-opacity="0.18"/>
<circle cx="207.5" cy="813.5" r="22.5" transform="rotate(180 207.5 813.5)" fill="#00FFE0" fill-opacity="0.18"/>
<circle cx="327.5" cy="569.5" r="22.5" fill="#00FFE0" fill-opacity="0.18"/>
<circle cx="328.5" cy="447.5" r="22.5" fill="#00FFE0" fill-opacity="0.18"/>
<circle cx="328.5" cy="691.5" r="22.5" fill="#00FFE0" fill-opacity="0.18"/>
<circle cx="327.5" cy="386.5" r="22.5" fill="#00FFE0" fill-opacity="0.18"/>
<circle cx="327.5" cy="630.5" r="22.5" fill="#00FFE0" fill-opacity="0.18"/>
<circle cx="328.5" cy="508.5" r="22.5" fill="#00FFE0" fill-opacity="0.18"/>
<circle cx="328.5" cy="752.5" r="22.5" fill="#00FFE0" fill-opacity="0.18"/>
<circle cx="205.5" cy="325.5" r="22.5" fill="#00FFE0" fill-opacity="0.18"/>
<circle cx="329.5" cy="813.5" r="22.5" transform="rotate(180 329.5 813.5)" fill="#00FFE0" fill-opacity="0.18"/>
<circle cx="205.5" cy="569.5" r="22.5" fill="#00FFE0" fill-opacity="0.18"/>
<circle cx="206.5" cy="447.5" r="22.5" fill="#00FFE0" fill-opacity="0.18"/>
<circle cx="206.5" cy="691.5" r="22.5" fill="#00FFE0" fill-opacity="0.18"/>
<circle cx="205.5" cy="386.5" r="22.5" fill="#00FFE0" fill-opacity="0.18"/>
<circle cx="205.5" cy="630.5" r="22.5" fill="#00FFE0" fill-opacity="0.18"/>
<circle cx="206.5" cy="508.5" r="22.5" fill="#00FFE0" fill-opacity="0.18"/>
<circle cx="206.5" cy="752.5" r="22.5" fill="#00FFE0" fill-opacity="0.18"/>
<circle cx="449.5" cy="569.5" r="22.5" fill="#00FFE0" fill-opacity="0.18"/>
<circle cx="450.5" cy="447.5" r="22.5" fill="#00FFE0" fill-opacity="0.18"/>
<circle cx="450.5" cy="691.5" r="22.5" fill="#00FFE0" fill-opacity="0.18"/>
<circle cx="449.5" cy="630.5" r="22.5" fill="#00FFE0" fill-opacity="0.18"/>
<circle cx="450.5" cy="508.5" r="22.5" fill="#00FFE0" fill-opacity="0.18"/>
<circle cx="450.5" cy="752.5" r="22.5" fill="#00FFE0" fill-opacity="0.18"/>
</svg>
