<svg width="557" height="409" viewBox="0 0 557 409" fill="none" xmlns="http://www.w3.org/2000/svg">
<g filter="url(#filter0_d)">
<path d="M11.5069 4.70711C11.8974 4.31658 12.5306 4.31658 12.9211 4.70711L91.9449 83.7309C92.3354 84.1214 92.3354 84.7546 91.9449 85.1451C91.5543 85.5356 90.9212 85.5356 90.5307 85.1451L11.5069 6.12132C11.1164 5.73079 11.1164 5.09763 11.5069 4.70711Z" fill="#72A6D6" fill-opacity="0.22"/>
<path d="M462 84.7002C462 85.2525 461.552 85.7002 461 85.7002L92 85.7002C91.4477 85.7002 91 85.2525 91 84.7002C91 84.1479 91.4477 83.7002 92 83.7002L461 83.7002C461.552 83.7002 462 84.1479 462 84.7002Z" fill="#72A6D6" fill-opacity="0.22"/>
<path d="M409 101.7C409 102.252 408.552 102.7 408 102.7L90 102.7C89.4477 102.7 89 102.253 89 101.7C89 101.148 89.4477 100.7 90 100.7L408 100.7C408.552 100.7 409 101.148 409 101.7Z" fill="#72A6D6" fill-opacity="0.22"/>
<path d="M344 118.7C344 119.252 343.552 119.7 343 119.7L155 119.7C154.448 119.7 154 119.252 154 118.7C154 118.148 154.448 117.7 155 117.7L343 117.7C343.552 117.7 344 118.148 344 118.7Z" fill="#72A6D6" fill-opacity="0.22"/>
<path d="M370 135.7C370 136.252 369.552 136.7 369 136.7L187 136.7C186.448 136.7 186 136.252 186 135.7C186 135.148 186.448 134.7 187 134.7L369 134.7C369.552 134.7 370 135.148 370 135.7Z" fill="#72A6D6" fill-opacity="0.22"/>
<path d="M300 152.7C300 153.252 299.552 153.7 299 153.7L161 153.7C160.448 153.7 160 153.252 160 152.7C160 152.148 160.448 151.7 161 151.7L299 151.7C299.552 151.7 300 152.148 300 152.7Z" fill="#72A6D6" fill-opacity="0.22"/>
<path d="M319 170.7C319 171.252 318.552 171.7 318 171.7L231 171.7C230.448 171.7 230 171.252 230 170.7C230 170.148 230.448 169.7 231 169.7L318 169.7C318.552 169.7 319 170.148 319 170.7Z" fill="#72A6D6" fill-opacity="0.22"/>
<path d="M348.209 188.296C347.933 188.774 347.321 188.938 346.843 188.662L317.866 171.932C317.388 171.656 317.224 171.045 317.5 170.566C317.776 170.088 318.388 169.924 318.866 170.2L347.843 186.93C348.321 187.206 348.485 187.818 348.209 188.296Z" fill="#72A6D6" fill-opacity="0.22"/>
<path d="M209 183.7C209 184.252 208.552 184.7 208 184.7L70 184.7C69.4477 184.7 69 184.252 69 183.7C69 183.148 69.4477 182.7 70 182.7L208 182.7C208.552 182.7 209 183.148 209 183.7Z" fill="#72A6D6" fill-opacity="0.22"/>
<path d="M241 200.7C241 201.252 240.552 201.7 240 201.7L70 201.7C69.4477 201.7 69 201.252 69 200.7C69 200.148 69.4477 199.7 70 199.7L240 199.7C240.552 199.7 241 200.148 241 200.7Z" fill="#72A6D6" fill-opacity="0.22"/>
<path d="M176 278.7C176 279.252 175.552 279.7 175 279.7L16 279.7C15.4477 279.7 15 279.252 15 278.7C15 278.148 15.4477 277.7 16 277.7L175 277.7C175.552 277.7 176 278.148 176 278.7Z" fill="#72A6D6" fill-opacity="0.22"/>
<path d="M368 265.7C368 266.252 367.552 266.7 367 266.7L197 266.7C196.448 266.7 196 266.252 196 265.7C196 265.148 196.448 264.7 197 264.7L367 264.7C367.552 264.7 368 265.148 368 265.7Z" fill="#72A6D6" fill-opacity="0.22"/>
<path d="M380 282.7C380 283.252 379.552 283.7 379 283.7L209 283.7C208.448 283.7 208 283.252 208 282.7C208 282.148 208.448 281.7 209 281.7L379 281.7C379.552 281.7 380 282.148 380 282.7Z" fill="#72A6D6" fill-opacity="0.22"/>
<path d="M187 295.7C187 296.252 186.552 296.7 186 296.7L16 296.7C15.4477 296.7 15 296.252 15 295.7C15 295.148 15.4477 294.7 16 294.7L186 294.7C186.552 294.7 187 295.148 187 295.7Z" fill="#72A6D6" fill-opacity="0.22"/>
<path d="M204 341.7C204 342.252 203.552 342.7 203 342.7L17 342.7C16.4477 342.7 16 342.252 16 341.7C16 341.148 16.4477 340.7 17 340.7L203 340.7C203.552 340.7 204 341.148 204 341.7Z" fill="#72A6D6" fill-opacity="0.22"/>
<path d="M293 299.7C293 300.252 292.552 300.7 292 300.7L225 300.7C224.448 300.7 224 300.252 224 299.7C224 299.148 224.448 298.7 225 298.7L292 298.7C292.552 298.7 293 299.148 293 299.7Z" fill="#72A6D6" fill-opacity="0.22"/>
<path d="M401 323.7C401 324.252 400.552 324.7 400 324.7L233 324.7C232.448 324.7 232 324.252 232 323.7C232 323.148 232.448 322.7 233 322.7L400 322.7C400.552 322.7 401 323.148 401 323.7Z" fill="#72A6D6" fill-opacity="0.22"/>
<path d="M161.744 152.566C162.02 153.044 161.856 153.656 161.377 153.932L139.656 166.473C139.177 166.749 138.566 166.586 138.29 166.107C138.013 165.629 138.177 165.017 138.656 164.741L160.377 152.2C160.856 151.924 161.467 152.088 161.744 152.566Z" fill="#72A6D6" fill-opacity="0.22"/>
<path d="M36.0307 149.731C36.4212 149.341 37.0544 149.341 37.4449 149.731L70.8572 183.143C71.2477 183.534 71.2477 184.167 70.8572 184.558C70.4667 184.948 69.8335 184.948 69.443 184.558L36.0307 151.145C35.6402 150.755 35.6402 150.122 36.0307 149.731Z" fill="#72A6D6" fill-opacity="0.22"/>
<path d="M230.954 170.566C231.23 171.044 231.066 171.656 230.588 171.932L208.866 184.473C208.388 184.749 207.776 184.586 207.5 184.107C207.224 183.629 207.388 183.017 207.866 182.741L229.588 170.2C230.066 169.924 230.678 170.088 230.954 170.566Z" fill="#72A6D6" fill-opacity="0.22"/>
<path d="M262.954 187.566C263.23 188.044 263.066 188.656 262.588 188.932L240.866 201.473C240.388 201.749 239.776 201.586 239.5 201.107C239.224 200.629 239.388 200.017 239.866 199.741L261.588 187.2C262.066 186.924 262.678 187.088 262.954 187.566Z" fill="#72A6D6" fill-opacity="0.22"/>
<path d="M197.954 265.566C198.23 266.044 198.066 266.656 197.588 266.932L175.866 279.473C175.388 279.749 174.776 279.586 174.5 279.107C174.224 278.629 174.388 278.017 174.866 277.741L196.588 265.2C197.066 264.924 197.678 265.088 197.954 265.566Z" fill="#72A6D6" fill-opacity="0.22"/>
<path d="M208.954 282.566C209.23 283.044 209.066 283.656 208.588 283.932L186.866 296.473C186.388 296.749 185.776 296.586 185.5 296.107C185.224 295.629 185.388 295.017 185.866 294.741L207.588 282.2C208.066 281.924 208.678 282.088 208.954 282.566Z" fill="#72A6D6" fill-opacity="0.22"/>
<path d="M291.5 299.566C291.776 299.088 292.388 298.924 292.866 299.2L307.186 307.468C307.665 307.744 307.829 308.356 307.552 308.834C307.276 309.312 306.665 309.476 306.186 309.2L291.866 300.932C291.388 300.656 291.224 300.045 291.5 299.566Z" fill="#72A6D6" fill-opacity="0.22"/>
<path d="M306 308.7C306 308.148 306.448 307.7 307 307.7H355C355.552 307.7 356 308.148 356 308.7C356 309.252 355.552 309.7 355 309.7H307C306.448 309.7 306 309.252 306 308.7Z" fill="#72A6D6" fill-opacity="0.22"/>
<path d="M224.954 299.566C225.23 300.044 225.066 300.656 224.588 300.932L182.706 325.113C182.228 325.389 181.616 325.225 181.34 324.746C181.064 324.268 181.228 323.657 181.706 323.38L223.588 299.2C224.066 298.924 224.678 299.088 224.954 299.566Z" fill="#72A6D6" fill-opacity="0.22"/>
<path d="M233.79 323.104C234.066 323.582 233.902 324.194 233.424 324.47L202.866 342.112C202.388 342.389 201.776 342.225 201.5 341.746C201.224 341.268 201.388 340.656 201.866 340.38L232.424 322.738C232.902 322.462 233.514 322.625 233.79 323.104Z" fill="#72A6D6" fill-opacity="0.22"/>
<path d="M401.954 269.566C402.23 270.044 402.066 270.656 401.588 270.932L379.866 283.473C379.388 283.749 378.776 283.586 378.5 283.107C378.224 282.629 378.388 282.017 378.866 281.741L400.588 269.2C401.066 268.924 401.678 269.088 401.954 269.566Z" fill="#72A6D6" fill-opacity="0.22"/>
<path d="M366.238 302.33C366.514 302.809 366.35 303.42 365.872 303.696L355.866 309.473C355.388 309.749 354.776 309.585 354.5 309.107C354.224 308.629 354.388 308.017 354.866 307.741L364.872 301.964C365.35 301.688 365.962 301.852 366.238 302.33Z" fill="#72A6D6" fill-opacity="0.22"/>
<path d="M408.977 158.936C408.701 159.414 408.089 159.578 407.611 159.302L368.866 136.932C368.388 136.656 368.224 136.045 368.5 135.566C368.776 135.088 369.388 134.924 369.866 135.2L408.611 157.57C409.089 157.846 409.253 158.457 408.977 158.936Z" fill="#72A6D6" fill-opacity="0.22"/>
<path d="M155.744 118.566C156.02 119.044 155.856 119.656 155.377 119.932L99.0471 152.455C98.5688 152.731 97.9572 152.567 97.681 152.089C97.4049 151.61 97.5687 150.999 98.047 150.722L154.377 118.2C154.856 117.924 155.467 118.088 155.744 118.566Z" fill="#72A6D6" fill-opacity="0.22"/>
<path d="M90.5269 102.227C90.1364 102.617 89.5032 102.617 89.1127 102.227L58.7071 71.8214C58.3166 71.4309 58.3166 70.7977 58.7071 70.4072C59.0977 70.0166 59.7308 70.0166 60.1213 70.4072L90.5269 100.813C90.9175 101.203 90.9175 101.836 90.5269 102.227Z" fill="#72A6D6" fill-opacity="0.22"/>
<path d="M60 70.7002C60 71.2525 59.5523 71.7002 59 71.7002L16 71.7002C15.4477 71.7002 15 71.2525 15 70.7002C15 70.1479 15.4477 69.7002 16 69.7002L59 69.7002C59.5523 69.7002 60 70.1479 60 70.7002Z" fill="#72A6D6" fill-opacity="0.22"/>
<circle cx="92" cy="83.7002" r="4" fill="#72A6D6" fill-opacity="0.22"/>
<circle cx="90" cy="101.7" r="4" fill="#72A6D6" fill-opacity="0.22"/>
<circle cx="412" cy="101.7" r="4" fill="#72A6D6" fill-opacity="0.22"/>
<g filter="url(#filter1_d)">
<circle cx="155" cy="118.7" r="4" fill="#72A6D6" fill-opacity="0.22"/>
</g>
<circle cx="160" cy="152.7" r="4" fill="#72A6D6" fill-opacity="0.22"/>
<circle cx="71" cy="183.7" r="4" fill="#72A6D6" fill-opacity="0.22"/>
<circle cx="242" cy="199.7" r="4" fill="#72A6D6" fill-opacity="0.22"/>
<circle cx="196" cy="266.7" r="4" fill="#72A6D6" fill-opacity="0.22"/>
<circle cx="185" cy="295.7" r="4" fill="#72A6D6" fill-opacity="0.22"/>
<g filter="url(#filter2_d)">
<circle cx="174" cy="278.7" r="4" fill="#72A6D6" fill-opacity="0.22"/>
</g>
<circle cx="209" cy="282.7" r="4" fill="#72A6D6" fill-opacity="0.22"/>
<circle cx="224" cy="299.7" r="4" fill="#72A6D6" fill-opacity="0.22"/>
<circle cx="232" cy="323.7" r="4" fill="#72A6D6" fill-opacity="0.22"/>
<circle cx="401" cy="323.7" r="4" fill="#72A6D6" fill-opacity="0.22"/>
<circle cx="203" cy="340.7" r="4" fill="#72A6D6" fill-opacity="0.22"/>
<circle cx="291" cy="299.7" r="4" fill="#72A6D6" fill-opacity="0.22"/>
<circle cx="307" cy="308.7" r="4" fill="#72A6D6" fill-opacity="0.22"/>
<g filter="url(#filter3_d)">
<circle cx="354" cy="308.7" r="4" fill="#72A6D6" fill-opacity="0.22"/>
</g>
<circle cx="230" cy="170.7" r="4" fill="#72A6D6" fill-opacity="0.22"/>
<g filter="url(#filter4_d)">
<circle cx="209" cy="182.7" r="4" fill="#72A6D6" fill-opacity="0.22"/>
</g>
<circle cx="317" cy="170.7" r="4" fill="#72A6D6" fill-opacity="0.22"/>
<circle cx="367" cy="135.7" r="4" fill="#72A6D6" fill-opacity="0.22"/>
<circle cx="10" cy="70.7002" r="5.5" stroke="#72A6D6" stroke-opacity="0.22"/>
<circle cx="64" cy="200.7" r="5.5" stroke="#72A6D6" stroke-opacity="0.22"/>
<circle cx="10" cy="278.7" r="5.5" stroke="#72A6D6" stroke-opacity="0.22"/>
<circle cx="305" cy="152.7" r="5.5" stroke="#72A6D6" stroke-opacity="0.22"/>
<circle cx="181" cy="135.7" r="5.5" stroke="#72A6D6" stroke-opacity="0.22"/>
<circle cx="352" cy="191.7" r="5.5" stroke="#72A6D6" stroke-opacity="0.22"/>
<circle cx="373" cy="265.7" r="5.5" stroke="#72A6D6" stroke-opacity="0.22"/>
<circle cx="176" cy="324.7" r="5.5" stroke="#72A6D6" stroke-opacity="0.22"/>
<circle cx="11" cy="341.7" r="5.5" stroke="#72A6D6" stroke-opacity="0.22"/>
<circle cx="10" cy="295.7" r="5.5" stroke="#72A6D6" stroke-opacity="0.22"/>
<circle cx="407" cy="269.7" r="5.5" stroke="#72A6D6" stroke-opacity="0.22"/>
<circle cx="371" cy="300.7" r="5.5" stroke="#72A6D6" stroke-opacity="0.22"/>
<circle cx="467" cy="84.7002" r="5.5" stroke="#72A6D6" stroke-opacity="0.22"/>
<circle cx="413" cy="162.7" r="5.5" stroke="#72A6D6" stroke-opacity="0.22"/>
<circle cx="349" cy="118.7" r="5.5" stroke="#72A6D6" stroke-opacity="0.22"/>
</g>
<defs>
<filter id="filter0_d" x="0" y="0" width="561" height="413" filterUnits="userSpaceOnUse" color-interpolation-filters="sRGB">
<feFlood flood-opacity="0" result="BackgroundImageFix"/>
<feColorMatrix in="SourceAlpha" type="matrix" values="0 0 0 0 0 0 0 0 0 0 0 0 0 0 0 0 0 0 127 0"/>
<feOffset/>
<feGaussianBlur stdDeviation="2"/>
<feColorMatrix type="matrix" values="0 0 0 0 0.447059 0 0 0 0 0.65098 0 0 0 0 0.839216 0 0 0 0.46 0"/>
<feBlend mode="normal" in2="BackgroundImageFix" result="effect1_dropShadow"/>
<feBlend mode="normal" in="SourceGraphic" in2="effect1_dropShadow" result="shape"/>
</filter>
<filter id="filter1_d" x="140" y="103.7" width="30" height="30" filterUnits="userSpaceOnUse" color-interpolation-filters="sRGB">
<feFlood flood-opacity="0" result="BackgroundImageFix"/>
<feColorMatrix in="SourceAlpha" type="matrix" values="0 0 0 0 0 0 0 0 0 0 0 0 0 0 0 0 0 0 127 0"/>
<feOffset/>
<feGaussianBlur stdDeviation="5.5"/>
<feColorMatrix type="matrix" values="0 0 0 0 0.447059 0 0 0 0 0.65098 0 0 0 0 0.839216 0 0 0 1 0"/>
<feBlend mode="normal" in2="BackgroundImageFix" result="effect1_dropShadow"/>
<feBlend mode="normal" in="SourceGraphic" in2="effect1_dropShadow" result="shape"/>
</filter>
<filter id="filter2_d" x="160" y="264.7" width="28" height="28" filterUnits="userSpaceOnUse" color-interpolation-filters="sRGB">
<feFlood flood-opacity="0" result="BackgroundImageFix"/>
<feColorMatrix in="SourceAlpha" type="matrix" values="0 0 0 0 0 0 0 0 0 0 0 0 0 0 0 0 0 0 127 0"/>
<feOffset/>
<feGaussianBlur stdDeviation="5"/>
<feColorMatrix type="matrix" values="0 0 0 0 0.447059 0 0 0 0 0.65098 0 0 0 0 0.839216 0 0 0 1 0"/>
<feBlend mode="normal" in2="BackgroundImageFix" result="effect1_dropShadow"/>
<feBlend mode="normal" in="SourceGraphic" in2="effect1_dropShadow" result="shape"/>
</filter>
<filter id="filter3_d" x="343" y="297.7" width="22" height="22" filterUnits="userSpaceOnUse" color-interpolation-filters="sRGB">
<feFlood flood-opacity="0" result="BackgroundImageFix"/>
<feColorMatrix in="SourceAlpha" type="matrix" values="0 0 0 0 0 0 0 0 0 0 0 0 0 0 0 0 0 0 127 0"/>
<feOffset/>
<feGaussianBlur stdDeviation="3.5"/>
<feColorMatrix type="matrix" values="0 0 0 0 0.447059 0 0 0 0 0.65098 0 0 0 0 0.839216 0 0 0 1 0"/>
<feBlend mode="normal" in2="BackgroundImageFix" result="effect1_dropShadow"/>
<feBlend mode="normal" in="SourceGraphic" in2="effect1_dropShadow" result="shape"/>
</filter>
<filter id="filter4_d" x="194" y="167.7" width="30" height="30" filterUnits="userSpaceOnUse" color-interpolation-filters="sRGB">
<feFlood flood-opacity="0" result="BackgroundImageFix"/>
<feColorMatrix in="SourceAlpha" type="matrix" values="0 0 0 0 0 0 0 0 0 0 0 0 0 0 0 0 0 0 127 0"/>
<feOffset/>
<feGaussianBlur stdDeviation="5.5"/>
<feColorMatrix type="matrix" values="0 0 0 0 0.447059 0 0 0 0 0.65098 0 0 0 0 0.839216 0 0 0 1 0"/>
<feBlend mode="normal" in2="BackgroundImageFix" result="effect1_dropShadow"/>
<feBlend mode="normal" in="SourceGraphic" in2="effect1_dropShadow" result="shape"/>
</filter>
</defs>
</svg>
