<svg width="75" height="75" viewBox="0 0 75 75" fill="none" xmlns="http://www.w3.org/2000/svg">
<circle cx="37.5" cy="37.5" r="36.5" stroke="url(#paint0_linear)" stroke-width="2"/>
<path d="M37.5 65C52.6878 65 65 52.6878 65 37.5C65 22.3122 52.6878 10 37.5 10C22.3122 10 10 22.3122 10 37.5C10 52.6878 22.3122 65 37.5 65Z" fill="url(#paint1_linear)"/>
<circle cx="37.5" cy="37.5" r="36.5" stroke="url(#paint2_linear)" stroke-width="2"/>
<path d="M22.5835 36.9049L49.0981 26.6818C50.3287 26.2372 51.4035 26.982 51.0048 28.8428L51.0071 28.8405L46.4925 50.1095C46.1579 51.6174 45.2619 51.9841 44.0083 51.2736L37.1333 46.2068L33.8173 49.4013C33.4506 49.768 33.1412 50.0774 32.4308 50.0774L32.9189 43.0809L45.6606 31.5699C46.2152 31.0818 45.5369 30.8068 44.8058 31.2926L29.0598 41.2063L22.2719 39.0888C20.7983 38.6213 20.7662 37.6153 22.5835 36.9049V36.9049Z" fill="white"/>
<defs>
<linearGradient id="paint0_linear" x1="37.5" y1="0" x2="37.5" y2="75" gradientUnits="userSpaceOnUse">
<stop stop-color="#72A6D6"/>
<stop offset="1" stop-color="#00FFE0"/>
</linearGradient>
<linearGradient id="paint1_linear" x1="37.5" y1="10" x2="37.5" y2="65" gradientUnits="userSpaceOnUse">
<stop stop-color="#72A6D6"/>
<stop offset="1" stop-color="#00FFE0"/>
</linearGradient>
<linearGradient id="paint2_linear" x1="37.5" y1="0" x2="37.5" y2="75" gradientUnits="userSpaceOnUse">
<stop stop-color="#72A6D6"/>
<stop offset="1" stop-color="#00FFE0"/>
</linearGradient>
</defs>
</svg>
