<svg width="209" height="209" viewBox="0 0 209 209" fill="none" xmlns="http://www.w3.org/2000/svg">
<g filter="url(#filter0_d)">
<path d="M173.964 59.3479L131.645 101.671C130.084 103.233 130.084 105.765 131.646 107.327L173.964 149.648C180.679 156.366 180.679 167.248 173.964 173.966C170.608 177.321 166.209 179 161.812 179C157.408 179 153.009 177.324 149.656 173.966L107.329 131.64C105.767 130.078 103.234 130.078 101.672 131.64L59.3477 173.965C55.9928 177.321 51.5934 179 47.1927 179C42.7933 179 38.3969 177.323 35.039 173.965C28.3238 167.25 28.3238 156.368 35.039 149.648L77.3558 107.327C78.9177 105.765 78.9177 103.232 77.3558 101.67L35.0364 59.3479C28.3212 52.6326 28.3212 41.7479 35.0364 35.0326C41.7504 28.3225 52.6286 28.3225 59.3451 35.0326L101.671 77.3555C103.233 78.9175 105.766 78.9175 107.328 77.3554L149.651 35.0326C156.369 28.3225 167.248 28.3225 173.961 35.0326C180.679 41.7479 180.679 52.6326 173.964 59.3479Z" fill="#00FFE0"/>
</g>
<defs>
<filter id="filter0_d" x="0" y="0" width="209" height="209" filterUnits="userSpaceOnUse" color-interpolation-filters="sRGB">
<feFlood flood-opacity="0" result="BackgroundImageFix"/>
<feColorMatrix in="SourceAlpha" type="matrix" values="0 0 0 0 0 0 0 0 0 0 0 0 0 0 0 0 0 0 127 0"/>
<feOffset/>
<feGaussianBlur stdDeviation="15"/>
<feColorMatrix type="matrix" values="0 0 0 0 0 0 0 0 0 1 0 0 0 0 0.88 0 0 0 1 0"/>
<feBlend mode="normal" in2="BackgroundImageFix" result="effect1_dropShadow"/>
<feBlend mode="normal" in="SourceGraphic" in2="effect1_dropShadow" result="shape"/>
</filter>
</defs>
</svg>
